<?xml version="1.0" standalone="no"?>
<!DOCTYPE svg PUBLIC "-//W3C//DTD SVG 20010904//EN"
 "http://www.w3.org/TR/2001/REC-SVG-20010904/DTD/svg10.dtd">
<svg version="1.0" xmlns="http://www.w3.org/2000/svg"
 width="964.000000pt" height="964.000000pt" viewBox="0 0 964.000000 964.000000"
 preserveAspectRatio="xMidYMid meet">
<metadata>
Created by potrace 1.14, written by Peter Selinger 2001-2017
</metadata>
<g transform="translate(0.000000,964.000000) scale(0.100000,-0.100000)"
fill="#000000" stroke="none">
<path d="M4660 9208 c0 -6 -3 -9 -6 -6 -8 8 -96 -22 -112 -39 -8 -7 -17 -11
-22 -8 -5 3 -11 -4 -15 -15 -3 -11 -12 -19 -18 -17 -7 1 -11 -4 -9 -10 1 -7
-4 -13 -11 -13 -7 0 -19 -10 -27 -21 -8 -12 -21 -28 -28 -35 -12 -12 -53 -96
-58 -119 -2 -5 -7 -25 -13 -42 -5 -18 -7 -33 -3 -34 4 0 -2 -4 -13 -8 -11 -4
-39 -7 -62 -5 -24 1 -43 -2 -43 -7 0 -6 -8 -5 -20 1 -15 8 -20 8 -20 -2 0 -9
-3 -9 -10 2 -9 13 -10 13 -10 0 0 -13 -1 -13 -10 0 -6 9 -10 10 -10 3 0 -8 -9
-9 -30 -3 -16 5 -32 5 -35 0 -3 -5 -19 -5 -35 0 -17 5 -30 5 -30 0 0 -5 -13
-5 -30 0 -17 5 -30 5 -30 0 0 -5 -13 -5 -30 0 -19 5 -30 5 -30 -1 0 -6 -5 -7
-11 -3 -7 4 -677 9 -1490 11 l-1479 5 -1 -54 c-1 -69 -1 -59 6 -573 3 -242 7
-618 10 -835 11 -1089 17 -1664 20 -2050 2 -234 4 -425 5 -425 2 0 10 -813 13
-1376 2 -256 7 -471 11 -477 4 -7 2 -12 -6 -12 -8 0 -9 -3 -3 -8 6 -4 11 -208
14 -562 3 -514 7 -926 10 -1027 1 -50 1 -50 176 -57 61 -3 110 -5 110 -6 0 -1
41 -3 90 -5 50 -2 131 -7 180 -10 136 -8 258 -14 378 -17 59 -1 107 -5 107 -8
0 -3 37 -5 83 -6 158 -2 460 -14 465 -18 2 -3 12 -1 22 4 10 5 20 6 24 3 4 -4
37 -8 74 -9 37 -2 126 -6 197 -9 258 -12 1353 -23 1493 -16 57 3 106 3 109 -2
2 -4 8 -5 12 -2 5 2 107 7 227 9 336 8 478 16 486 29 6 9 8 9 8 0 0 -7 9 -10
23 -7 27 5 88 11 182 19 39 3 81 7 95 9 40 5 124 18 143 22 122 26 177 45 170
58 -4 8 -3 8 6 0 9 -8 23 -6 54 9 23 12 45 25 48 30 3 5 10 8 15 8 15 -1 48
11 63 22 7 6 20 12 28 13 8 2 23 10 32 18 10 9 23 16 29 16 7 0 12 4 12 8 0 5
18 17 40 27 22 10 40 22 40 27 0 4 7 8 15 8 8 0 15 4 15 9 0 7 31 20 48 20 1
1 13 11 25 23 22 23 49 42 77 55 8 4 21 13 28 19 7 7 45 35 85 61 39 26 73 51
75 55 2 4 20 17 40 30 64 39 161 116 155 122 -4 3 1 6 10 6 10 0 17 5 17 12 0
6 3 8 7 5 3 -4 13 2 20 13 8 11 18 18 23 15 4 -3 10 -2 12 2 2 7 58 53 116 98
7 5 22 18 33 28 10 9 19 14 19 10 0 -5 4 -3 8 3 4 6 41 37 82 70 80 63 109 87
146 119 12 11 35 29 50 40 16 11 41 32 56 47 15 16 30 28 33 28 5 0 58 44 102
87 13 12 23 20 23 17 0 -3 19 14 43 37 23 23 43 40 44 38 1 -4 112 92 141 123
8 9 19 15 23 12 4 -2 10 5 14 16 3 11 11 20 16 20 5 0 17 8 27 18 9 9 30 27
46 39 16 13 25 23 21 23 -4 0 15 17 42 38 41 34 136 119 168 152 6 6 28 27 49
48 22 20 57 54 78 74 21 20 38 34 38 30 0 -3 11 9 25 28 14 19 25 30 25 24 1
-5 7 2 15 16 8 14 14 22 15 17 0 -4 23 19 52 50 28 32 62 68 75 80 13 12 23
25 23 28 0 3 13 18 28 33 16 15 44 49 62 76 33 49 75 146 64 146 -4 0 -1 6 5
13 6 8 13 27 15 43 2 16 7 37 11 46 4 9 4 21 1 26 -3 6 1 15 9 22 12 10 13 16
4 26 -8 10 -8 14 -1 14 6 0 9 6 6 14 -3 8 0 17 6 21 8 5 8 10 0 20 -8 9 -8 15
0 20 6 3 8 11 5 16 -4 5 -1 9 5 9 8 0 8 6 0 20 -6 12 -7 20 -1 20 5 0 8 8 6
18 -1 9 0 21 3 26 3 6 7 33 8 60 2 28 6 89 9 136 3 47 6 101 8 122 1 20 -2 34
-7 31 -5 -4 -5 0 0 8 11 17 14 349 3 349 -9 0 -7 20 4 38 8 11 2 16 -16 13 -4
-1 -3 8 3 19 6 11 8 20 5 20 -3 0 -1 8 4 18 6 11 6 23 2 28 -5 5 -12 113 -15
239 -4 127 -9 266 -12 310 -2 44 -6 124 -7 177 -1 53 -6 100 -9 104 -4 4 -3
15 3 25 5 11 6 19 1 19 -4 0 -9 98 -11 217 -1 119 -4 220 -6 223 -4 6 -11 219
-21 600 -5 229 -11 415 -13 415 -1 0 -3 77 -5 170 -11 465 -17 682 -21 800 -2
72 -7 216 -10 320 -3 105 -8 198 -11 207 -5 17 -84 18 -1410 18 -773 0 -1410
2 -1415 5 -5 4 -9 3 -9 -2 0 -4 -107 -7 -237 -6 l-237 1 -33 36 c-18 19 -33
39 -33 45 0 6 -3 11 -8 11 -4 0 -18 10 -32 23 -14 12 -41 34 -61 49 -50 37
-98 86 -91 93 3 3 -2 5 -11 5 -9 0 -17 3 -17 8 0 11 -80 58 -92 54 -6 -2 -8 4
-5 11 4 10 0 13 -13 10 -10 -3 -21 1 -25 8 -6 8 -4 10 5 4 8 -5 11 -4 7 3 -4
5 -15 9 -25 8 -9 -2 -20 2 -24 7 -10 15 -198 20 -198 5z"/>
</g>
</svg>
